<?xml version="1.0" encoding="UTF-8"?>
<svg id="Camada_1" data-name="Camada 1" xmlns="http://www.w3.org/2000/svg" viewBox="0 0 74.94 74.94">
  <defs>
    <style>
      .cls-1, .cls-2 {
        fill: #fff;
      }

      .cls-2 {
        fill-rule: evenodd;
      }
    </style>
  </defs>
  <path class="cls-2" d="m32.54,37.62v18.33c0,.26.21.48.48.48h6.81c.26,0,.48-.21.48-.48v-18.63h4.94c.25,0,.45-.19.48-.44l.47-5.61c.02-.28-.2-.52-.48-.52h-5.41v-3.98c0-.93.76-1.69,1.69-1.69h3.8c.26,0,.48-.21.48-.48v-5.61c0-.26-.21-.48-.48-.48h-6.43c-3.77,0-6.83,3.06-6.83,6.83v5.41h-3.4c-.26,0-.48.21-.48.48v5.61c0,.26.21.48.48.48h3.4v.3Z"/>
  <path class="cls-1" d="m37.47,0C16.81,0,0,16.81,0,37.47s16.81,37.47,37.47,37.47,37.47-16.81,37.47-37.47S58.13,0,37.47,0Zm32.66,37.47c0,18.01-14.65,32.66-32.66,32.66S4.8,55.48,4.8,37.47,19.46,4.81,37.47,4.81s32.66,14.65,32.66,32.66Z"/>
</svg>