<?xml version="1.0" encoding="UTF-8"?>
<!DOCTYPE svg PUBLIC "-//W3C//DTD SVG 1.1//EN" "http://www.w3.org/Graphics/SVG/1.1/DTD/svg11.dtd">
<!-- Creator: CorelDRAW 2021 (64-Bit) -->
<svg xmlns="http://www.w3.org/2000/svg" xml:space="preserve" width="297mm" height="210mm" version="1.1" style="shape-rendering:geometricPrecision; text-rendering:geometricPrecision; image-rendering:optimizeQuality; fill-rule:evenodd; clip-rule:evenodd"
viewBox="0 0 29700 21000"
 xmlns:xlink="http://www.w3.org/1999/xlink"
 xmlns:xodm="http://www.corel.com/coreldraw/odm/2003">
 <defs>
  <style type="text/css">
   <![CDATA[
    .fil0 {fill:#FEFEFE}
   ]]>
  </style>
 </defs>
 <g id="Layer_x0020_1">
  <metadata id="CorelCorpID_0Corel-Layer"/>
  <path class="fil0" d="M3693.64 14398.11c-194.93,0 -375.23,-95.94 -445.82,-257.34 -162.54,-371.55 97.01,-680.22 345.37,-680.22l200.91 0c492.17,0 577.15,937.56 -100.46,937.56zm-703.16 -502.25c0,429.01 295.51,669.66 736.66,669.66 261.41,0 292.3,-105.16 435.3,-200.91 0,526.7 -66.24,569.22 -569.25,569.22 -208.06,0 -299.65,-95.63 -435.26,-167.41 -33.18,124.14 -33.81,43.27 -66.99,167.41 569.48,381.35 1272.41,196.79 1272.41,-368.31l0 -1272.37 -167.45 0 0 234.36c-308.91,-355.38 -733.65,-330.31 -996.09,-92.03 -92.42,83.88 -209.33,299.1 -209.33,460.38z"/>
  <path class="fil0" d="M12365.95 13962.81c0,-667.13 971.02,-693.94 971.02,0 0,670.45 -971.02,633.87 -971.02,0zm971.02 -468.76c-149.61,-100.21 -232.47,-234.4 -502.26,-234.4 -793.68,0 -1019.38,1372.82 100.45,1372.82 166.77,0 298.31,-131.57 401.81,-200.9l0 200.9 200.9 0 0 -1808.12c0,-77.16 -23.3,-100.45 -100.45,-100.45 -165.51,0 -100.45,449.66 -100.45,770.15z"/>
  <path class="fil0" d="M24855.4 14029.76c0,-440.95 128.26,-569.21 569.22,-569.21 466.9,0 586.09,1004.52 -133.95,1004.52 -205.3,0 -435.27,-229.97 -435.27,-435.31zm937.52 -569.21c-124.45,-83.36 -262.47,-200.9 -468.76,-200.9 -861.78,0 -948.75,1372.82 33.5,1372.82 283.2,0 310.29,-128.25 468.76,-234.36l0 234.36 167.41 0 0 -1908.57c-237.01,0 -206.8,13.05 -202.05,300.2 2.41,145.42 1.14,291 1.14,436.45z"/>
  <path class="fil0" d="M1985.97 13092.25c90.96,66.63 182.08,322.9 229.7,439.96l205.6 464.1 -803.61 0c72.34,-310.49 298.43,-604.1 368.31,-904.06zm-870.56 1540.22l200.9 0c71.34,-148.7 129.56,-320.06 200.9,-468.76l1004.52 0c13.48,162.23 122.63,276.56 167.4,468.76l200.9 0c-15.06,-181.01 -284.94,-676.74 -377.99,-894.37 -72.97,-170.73 -132.69,-275.45 -200.91,-435.3 -58.88,-138.02 -163.41,-325.64 -191.21,-444.95l-234.4 0c-14.87,178.79 -711.66,1523.81 -770.11,1774.62z"/>
  <path class="fil0" d="M14977.68 13862.36l-904.06 0c56.83,-243.89 176.7,-411.02 442.18,-427.67 94.09,-5.89 249.47,56.67 315.83,104.92 92.78,67.43 142.77,176.26 146.05,322.75zm-1104.96 100.45c0,738.51 943.25,826.59 1205.41,468.76 -42.19,-176.23 -74.86,-124.02 -188.4,-59.44 -342.09,194.65 -711.74,105.71 -816.11,-342.37l1104.97 0c0,-1101.52 -1305.87,-934.11 -1305.87,-66.95z"/>
  <path class="fil0" d="M18125.17 13862.36l-904.06 0c56.79,-243.89 176.7,-411.02 442.14,-427.67 181.05,-11.35 454.92,113.34 461.92,427.67zm-1104.96 100.45c0,738.51 943.21,826.59 1205.41,468.76 -68.89,-287.75 -131.38,33.5 -502.26,33.5 -311.79,0 -442.85,-180.3 -502.25,-435.31l1104.96 0c0,-1101.52 -1305.86,-934.11 -1305.86,-66.95z"/>
  <path class="fil0" d="M10658.28 14465.07c-150.16,0 -401.81,27.84 -401.81,-200.91 0,-309.42 306.97,-234.4 736.66,-234.4 0,188.41 -32.39,435.31 -334.85,435.31zm-535.75 -1004.52l37.61 132.65c257.89,-68.46 -4.16,-132.65 565.09,-132.65 255.36,0 267.9,235.67 267.9,401.81 -279.92,0 -937.56,-70.24 -937.56,368.31 0,385.23 356.48,401.8 602.71,401.8 157.56,0 239.9,-103.81 334.85,-167.4l0 167.4 200.9 0c0,-643.32 139.33,-1372.82 -535.75,-1372.82 -224.91,0 -444.76,65.02 -535.75,200.9z"/>
  <path class="fil0" d="M23783.9 14465.07c-150.16,0 -401.81,27.84 -401.81,-200.91 0,-309.42 307.01,-234.4 736.66,-234.4 0,145.1 17.56,248.25 -113.74,355.06 -50.31,40.9 -141.07,80.25 -221.11,80.25zm-535.72 -1004.52l37.57 132.65c257.94,-68.46 -4.15,-132.65 565.14,-132.65 255.32,0 267.86,235.67 267.86,401.81 -279.88,0 -937.56,-70.24 -937.56,368.31 0,385.23 356.52,401.8 602.71,401.8 157.6,0 239.89,-103.81 334.85,-167.4l0 167.4 200.9 0c0,-643.32 139.33,-1372.82 -535.75,-1372.82 -224.91,0 -444.72,65.02 -535.72,200.9z"/>
  <path class="fil0" d="M5836.62 13862.36l-904.06 0c11.07,-497 752.99,-648.39 904.06,0zm-1104.97 33.5c0,563.19 281.46,736.61 803.61,736.61 166.78,0 298.27,-131.57 401.81,-200.9 -53.35,-79.65 -40.54,-34.88 -66.96,-133.91 -158.58,42.32 -159.21,167.41 -435.3,167.41 -279.2,0 -495.97,-152.54 -502.25,-435.31l1004.51 0c210.27,0 7.75,-437.87 -57.54,-511.66 -485.02,-548.1 -1147.88,-126.12 -1147.88,377.76z"/>
  <path class="fil0" d="M26563.08 14029.76c0,-440.95 128.25,-569.21 569.21,-569.21 446.85,0 600.57,1004.52 -133.95,1004.52 -205.29,0 -435.26,-229.97 -435.26,-435.31zm-200.91 -133.9l0 167.4c0,245.43 323.78,569.21 569.21,569.21l167.41 0c346.36,0 647.2,-354.07 627.39,-696.2 -11.43,-197.38 -83.45,-345.37 -198.93,-468.87 -391.64,-418.82 -1165.08,-155.51 -1165.08,428.46z"/>
  <path class="fil0" d="M6573.27 13460.55l0 -167.4 -200.9 0 0 1339.32 200.9 0c0,-864.83 -120.42,-1171.92 535.72,-1171.92 408.45,0 301.35,693.59 301.35,1171.92l200.9 0c0,-375.66 57.19,-931.55 -126.75,-1179.07 -263.31,-354.39 -670.09,-154.32 -911.22,7.15z"/>
  <path class="fil0" d="M19899.8 14130.22c0,388.67 269.47,502.25 602.7,502.25 227.24,0 301.55,-111.33 435.31,-200.9l0 200.9 167.4 0 0 -1339.32 -200.9 0c0,721.39 128.73,1171.92 -468.76,1171.92 -456.62,0 -334.85,-559.64 -334.85,-1171.92l-200.9 0 0 837.07z"/>
  <path class="fil0" d="M19397.54 14264.16c0,410.83 -835.88,67.23 -837.11,66.96 -36.5,69.05 -46.43,79.37 -66.95,167.44 291.23,67.83 73.2,133.91 636.2,133.91 447.52,0 749.91,-557.46 94.6,-730.76 -160.68,-42.52 -472,-51.93 -496.4,-240.25 -21.56,-166.22 333.54,-370.37 736.61,-100.46 41.45,-78.34 57.51,-87.16 67,-200.9 -163.41,-38.08 -294.2,-100.45 -502.26,-100.45 -310.45,0 -634.23,304.36 -428.34,594.84 80.99,114.25 249.7,152.42 414.78,188.84 165.98,36.62 381.87,34.45 381.87,220.83z"/>
  <path class="fil0" d="M27935.9 13627.96c0,627.23 837.1,220.08 837.1,669.7 0,148.46 -198.45,167.41 -334.85,167.41 -275.6,0 -313.41,-89.94 -502.25,-133.95l-37.57 132.64c183.58,241.88 1075.58,287.83 1075.58,-233.09 0,-537.1 -837.11,-144.63 -837.11,-636.17 0,-304.4 736.34,-66.99 736.66,-66.99 26.41,-99.03 13.6,-54.26 66.95,-133.91 -462.63,-244.8 -1004.51,-123.98 -1004.51,234.36z"/>
  <path class="fil0" d="M7946.09 13929.31c0,863.41 1099.08,858.27 1205.42,401.81 -97.88,-23.41 -48.25,4.31 -100.45,-66.96 -122.09,81.75 -192.52,200.91 -401.81,200.91 -695.84,0 -607.29,-1004.52 -100.45,-1004.52 259.63,0 247.77,-19.34 422.81,112.95 51.69,39.04 6.28,28 79.45,54.46 44.61,-40.42 42.43,-36.27 100.45,-66.96 -124.85,-467.65 -1205.42,-405.2 -1205.42,368.31z"/>
  <path class="fil0" d="M22310.63 13293.15l-234.4 0 0 167.4 234.4 0c0,834.58 -126.28,1171.92 435.3,1171.92 121.61,0 117.42,-39.7 234.36,-66.95 -20.49,-88.08 -30.45,-98.4 -66.96,-167.41 -143.59,96.14 -157.63,82.58 -368.3,33.46 -69.17,-296.89 -33.5,-660.72 -33.5,-971.02 416.52,0 397.33,33.07 401.8,-167.4l-401.8 0c0,-322.71 28.31,-301.36 -200.9,-301.36l0 301.36z"/>
  <path class="fil0" d="M21607.47 14632.47c135.65,0 200.9,18.59 200.9,-100.45l0 -1707.67c0,-119.04 -65.25,-100.45 -200.9,-100.45l0 1908.57z"/>
  <path class="fil0" d="M16384 13460.55l0 -167.4 -200.9 0 0 1339.32 200.9 0c0,-734.99 -115.91,-1171.92 468.76,-1171.92l0 -200.9c-78.82,6.57 -219.77,40.22 -273.16,61.66 -119.27,47.93 -97.84,73.79 -195.6,139.24z"/>
  <polygon class="fil0" points="9486.36,14632.47 9687.26,14632.47 9687.26,13293.15 9486.36,13293.15 "/>
  <path class="fil0" d="M4966.05 13092.25c275.37,0 109.87,17 435.27,-200.91 80.28,119.87 165.03,200.91 368.34,200.91 -279.4,-417.23 -501.11,-451.76 -803.61,0z"/>
  <path class="fil0" d="M9452.86 12857.85c0,81.98 48.49,118.12 100.45,167.4 88.08,-20.48 98.4,-30.45 167.41,-66.95 0,-176.46 14.79,-200.91 -133.91,-200.91 -64.7,0 -133.95,59.72 -133.95,100.46z"/>
  <path class="fil0" d="M18459.98 11685.93l2377.37 0c97.69,-184.69 188.88,-455.32 272.65,-664.92l1937.28 -4859.9 -2176.47 0 -1171.92 2913.08c-21.51,-92.38 -84.27,-242.74 -124.18,-344.61l-947.28 -2568.47 -2377.38 0c94.8,197.54 184.22,460.65 267.9,669.66l837.07 2075.98c185.99,464.57 364.55,911.22 554.89,1387.18l416.16 1023.65c48.76,121.69 102.07,231.55 133.91,368.35z"/>
  <path class="fil0" d="M14374.98 6696.82l0 -535.71 -2109.48 0c-77.16,0 -100.45,23.29 -100.45,100.45l0 5323.92c0,77.15 23.29,100.45 100.45,100.45l2209.93 0 0 -2511.28c0,-642.46 388.47,-1104.97 1004.51,-1104.97l669.66 33.46 0 -2042.48c-436.8,0 -700.75,45.71 -1057.7,181.16 -152.22,57.74 -253.11,112.4 -376.1,193.16 -127.46,83.68 -228.19,186.42 -340.82,261.84z"/>
  <path class="fil0" d="M26228.23 9978.26c-471.89,0 -764.58,-160.69 -909.88,-630.4 -189.08,-611.44 70.47,-1479.08 742.47,-1479.08 660.21,0 951.99,387.65 969.55,1039.83 6.33,233.88 -79.84,540.5 -199.91,734.32 -96.77,156.25 -349.96,335.33 -602.23,335.33zm-3281.4 -1238.92l0 368.31c0,1138.07 884.76,2094.41 1870.81,2448.6 821.48,295.11 1803.65,320.73 2630.67,10.4 416.72,-156.33 609.39,-278.69 923.52,-516.25 457.69,-346.13 970.38,-1139.89 970.38,-1942.75 0,-546.86 -28.27,-1034.65 -302.65,-1505.46 -180.9,-310.41 -370.29,-563 -644.63,-795.19 -952.19,-805.94 -2343.44,-922.61 -3552.3,-524.76 -396.54,130.51 -636.28,295.7 -925.46,514.4 -458.59,346.79 -970.34,1137.91 -970.34,1942.7z"/>
  <path class="fil0" d="M8448.35 7634.38c444.71,0 861.59,299.53 870.56,703.16l-1707.67 0c97.01,-416.28 399.67,-703.16 837.11,-703.16zm-3113.99 1071.47c0,612.59 16.26,978.76 312.15,1529.47 370.01,688.64 925.42,1053.94 1619.48,1327.1 1093.73,430.44 3160.7,265.76 3794.09,-680.1l-1179.94 -1197.39c-405.21,267.9 -564.78,393.78 -1197.39,393.78 -466.31,0 -918.22,-232.19 -1004.51,-602.71l3783.65 0c0,-616.87 167.76,-906.63 -224.55,-1817.97 -765.25,-1777.59 -3492.7,-2089.31 -4955.69,-851.03 -502.65,425.42 -947.29,1203.8 -947.29,1898.85z"/>
  <path class="fil0" d="M1651.16 6261.56l0 200.9 -770.15 0 0 1607.22c0,170.06 307.56,100.45 770.15,100.45l0 3515.8 2276.88 0 0 -3515.8 1038.01 0c77.16,0 100.45,-23.29 100.45,-100.45l0 -1607.22 -1205.41 0c20.52,-921.74 845.25,-521.08 1071.47,-502.26l535.75 -1573.76c-910.31,-481.65 -2647.29,-462.67 -3449.16,669.35 -183.46,259 -367.99,759.95 -367.99,1205.77z"/>
 </g>
</svg>
