<?xml version="1.0" encoding="UTF-8"?>
<!DOCTYPE svg PUBLIC "-//W3C//DTD SVG 1.1//EN" "http://www.w3.org/Graphics/SVG/1.1/DTD/svg11.dtd">
<!-- Creator: CorelDRAW 2021 (64-Bit) -->
<svg xmlns="http://www.w3.org/2000/svg" xml:space="preserve" width="297mm" height="210mm" version="1.1" style="shape-rendering:geometricPrecision; text-rendering:geometricPrecision; image-rendering:optimizeQuality; fill-rule:evenodd; clip-rule:evenodd"
viewBox="0 0 29700 21000"
 xmlns:xlink="http://www.w3.org/1999/xlink"
 xmlns:xodm="http://www.corel.com/coreldraw/odm/2003">
 <defs>
  <style type="text/css">
   <![CDATA[
    .fil0 {fill:#FEFEFE}
   ]]>
  </style>
 </defs>
 <g id="Layer_x0020_1">
  <metadata id="CorelCorpID_0Corel-Layer"/>
  <g id="_1655249125808">
   <path class="fil0" d="M15991.52 8380.02c-6.81,-364.6 39.51,-664.11 -139.47,-936.73 -131.12,-199.72 -365.65,-346.01 -711.24,-347.73 -705.58,-3.49 -1412.18,0.37 -2117.89,0.2 -411.13,-0.1 -575.91,22.63 -799.25,260.07 -235.53,250.45 -213.06,453.32 -213.06,854.57l0 9529c0,373.82 -46.35,652.57 132.96,934.71 123.43,194.25 350.89,357.62 692.85,356.8l2118.32 -0.4c415.75,0 563.62,-0.58 807.85,-241.89 233.3,-230.5 227.79,-430.43 227.79,-826.32l0 -3176.34c0,-701.48 -14.41,-1417.99 0.36,-2117.59 14.81,-702.53 307.97,-1142.54 654,-1468.09 925.39,-870.58 2285.89,-565.22 2921.55,274.09 393.02,518.94 399.03,972.27 399.03,1732.71l0 4235.12c0,613.08 -138.78,1339.2 566.27,1556.03 247.48,76.12 1697.83,32.28 2076.07,32.28 326.43,0 692.65,43.67 943.23,-106.45 193.16,-115.71 381.95,-342.63 393.72,-663.79 25.2,-687.11 0.46,-1425.51 0.46,-2118.33l0 -4235.12c0,-718.28 -11.99,-1267.66 -181.12,-1935.23 -268.95,-1061.54 -860.63,-1920.23 -1719.51,-2517.48 -1813.58,-1261.15 -4467.9,-894.6 -5927.08,785.49l-125.84 140.42z"/>
   <path class="fil0" d="M6445.89 18928.2c28.5,140.42 241.18,102.4 391.55,102.34 420.94,-0.13 3396.11,15.73 3481.18,-4.61 147.03,-35.2 103.81,-238.12 103.8,-394.91l0 -10439.21c0,-1173.36 119.8,-1096.13 -390.07,-1096.05 -435.18,0.07 -3383.26,-17.68 -3487.28,5.72 -143.16,32.2 -102.43,246.64 -102.41,403.06 0.14,1302.04 -21.47,11301.92 3.23,11423.66z"/>
   <path class="fil0" d="M8122.3 756.13c-1218.51,171.34 -2236.59,1250.12 -2057.75,2674.9 152.33,1213.59 1266.06,2229.25 2665.29,2061.99 1211.95,-144.87 2251.84,-1261.38 2072.69,-2679.77 -151.49,-1199.51 -1275.39,-2254.69 -2680.23,-2057.12z"/>
  </g>
 </g>
</svg>
